<?xml version="1.0" standalone="no"?>
<!DOCTYPE svg PUBLIC "-//W3C//DTD SVG 20010904//EN"
 "http://www.w3.org/TR/2001/REC-SVG-20010904/DTD/svg10.dtd">
<svg version="1.0" xmlns="http://www.w3.org/2000/svg"
 width="1920.000000pt" height="1080.000000pt" viewBox="0 0 1920.000000 1080.000000"
 preserveAspectRatio="xMidYMid meet">

<g transform="translate(0.000000,1080.000000) scale(0.100000,-0.100000)"
fill="#000000" stroke="none">
<path d="M8368 9080 c-32 -22 -61 -40 -66 -40 -5 0 -17 -9 -27 -20 -15 -17
-16 -25 -5 -72 17 -74 76 -183 114 -211 53 -40 85 -47 256 -58 294 -18 345
-29 388 -84 19 -24 22 -40 22 -121 0 -54 -4 -94 -10 -94 -5 0 -21 17 -35 37
-34 52 -119 106 -185 120 -143 30 -179 35 -293 35 -174 0 -269 -21 -492 -110
-125 -50 -150 -56 -228 -60 l-87 -4 -58 59 c-44 46 -72 89 -125 196 -38 75
-74 137 -81 137 -7 0 -37 -18 -67 -40 -30 -21 -64 -46 -76 -55 -35 -25 -29
-56 39 -192 99 -196 159 -256 271 -269 64 -8 108 2 197 44 76 35 201 79 290
103 188 49 507 30 635 -39 61 -32 104 -118 105 -207 0 -101 76 -258 199 -415
19 -25 45 -55 58 -68 27 -27 28 -35 9 -51 -12 -10 -41 -5 -138 23 -68 20 -139
40 -158 46 -119 32 -152 41 -215 59 -38 11 -104 29 -145 40 -41 11 -113 32
-160 46 -47 15 -105 33 -130 40 -25 7 -90 29 -145 49 -148 53 -139 59 -132
-83 7 -144 51 -320 119 -479 10 -24 18 -53 18 -64 0 -18 -4 -20 -37 -15 -21 4
-103 13 -183 22 -80 9 -183 20 -230 25 -131 15 -443 65 -458 74 -4 2 -14 1
-22 -4 -12 -7 -12 -20 -2 -81 39 -225 192 -517 407 -773 92 -111 267 -287 338
-340 20 -16 37 -33 37 -38 0 -13 -37 -46 -170 -152 -277 -221 -567 -395 -950
-568 -61 -28 -302 -122 -337 -133 -13 -3 -23 -10 -23 -15 0 -23 175 -201 315
-320 256 -217 620 -448 878 -556 34 -15 80 -35 102 -45 94 -43 376 -141 505
-176 85 -22 275 -63 375 -79 199 -33 958 -29 1119 6 139 30 389 99 431 119 11
6 49 22 85 37 83 33 203 97 244 127 17 13 41 27 52 31 12 3 29 15 39 26 10 11
22 20 27 20 33 0 382 319 453 415 17 21 50 61 75 88 48 52 222 306 255 372 11
22 30 54 42 70 12 17 38 64 58 105 20 41 40 82 45 90 33 60 134 305 179 435
17 50 36 104 42 120 6 17 14 46 18 65 4 19 13 51 19 70 6 19 18 71 27 115 9
44 20 96 25 115 4 19 14 74 21 123 l12 87 36 9 c32 8 80 19 176 41 55 12 43
36 -37 74 -40 19 -82 41 -92 49 -18 13 -16 15 29 31 27 9 56 16 66 16 9 0 30
7 45 15 16 8 39 15 51 15 12 0 25 4 28 10 3 5 20 13 38 18 64 17 40 37 -93 75
-140 41 -189 59 -205 77 -12 13 -20 47 -26 105 -13 126 -53 254 -124 400 -77
156 -159 268 -291 395 -188 182 -383 285 -649 345 -153 35 -511 21 -645 -25
-14 -5 -59 -18 -100 -30 -183 -54 -391 -185 -582 -367 -36 -34 -73 -63 -81
-63 -24 0 -80 132 -99 230 -5 30 -13 159 -16 285 -8 265 -11 275 -96 321 -61
34 -174 52 -386 63 -114 6 -164 12 -188 25 -32 16 -72 70 -86 114 -18 57 -67
152 -79 152 -6 0 -38 -18 -69 -40z m2879 -1509 c17 -5 64 -30 104 -56 55 -36
69 -49 58 -55 -8 -5 -31 -5 -51 -1 -44 10 -120 -2 -162 -27 -17 -10 -45 -37
-63 -61 -28 -37 -33 -51 -33 -100 0 -144 137 -271 294 -271 93 0 173 57 202
143 14 43 15 57 4 104 -18 73 -36 86 -55 40 -8 -20 -24 -41 -34 -47 -75 -40
-171 48 -127 116 35 53 89 56 142 7 16 -15 40 -28 53 -29 31 -4 33 -7 48 -62
17 -64 16 -94 -4 -154 -20 -61 -70 -115 -139 -149 -71 -35 -190 -39 -279 -9
-261 87 -389 355 -247 520 66 78 194 118 289 91z"/>
<path d="M12140 3883 c-85 -33 -135 -106 -128 -184 10 -97 89 -158 204 -159
53 0 69 5 110 33 39 26 53 43 71 88 21 53 22 60 8 106 -16 55 -43 85 -97 108
-36 15 -137 19 -168 8z"/>
<path d="M9010 3849 c-80 -5 -222 -12 -316 -17 -208 -10 -223 -16 -220 -89 3
-57 24 -73 100 -73 75 0 125 -18 134 -49 4 -14 7 -246 7 -514 l0 -489 -31 -27
c-24 -21 -48 -30 -110 -40 -104 -17 -103 -16 -114 -46 -15 -40 -12 -70 10 -90
18 -16 51 -17 472 -16 249 1 482 6 518 11 236 35 387 151 435 335 25 94 14
187 -31 275 -23 46 -115 135 -165 160 -21 11 -39 25 -39 30 0 5 17 18 38 29
88 46 132 122 132 232 0 66 -4 85 -31 135 -32 63 -81 120 -114 135 -11 5 -36
19 -55 30 -105 64 -338 93 -620 78z m259 -155 c81 -20 137 -62 162 -122 21
-48 25 -135 8 -179 -13 -35 -55 -80 -93 -100 -39 -20 -250 -31 -261 -13 -4 7
-7 102 -7 213 0 154 4 202 14 208 21 14 107 10 177 -7z m-14 -575 c98 -16 140
-35 183 -84 90 -103 97 -305 13 -399 -38 -41 -105 -67 -193 -73 -89 -7 -128 5
-158 47 -18 25 -20 47 -22 258 -1 156 2 235 9 244 15 17 82 20 168 7z"/>
<path d="M5332 3805 c-18 -13 -22 -26 -22 -64 0 -56 9 -66 69 -76 24 -4 52
-16 64 -28 19 -19 20 -27 13 -191 -3 -94 -11 -220 -16 -281 -5 -60 -14 -200
-20 -310 -12 -208 -21 -265 -44 -284 -8 -7 -37 -16 -65 -20 -68 -11 -81 -23
-81 -82 0 -72 4 -73 275 -71 263 2 265 2 265 77 0 51 -6 56 -94 76 -81 18 -91
41 -82 199 15 290 41 600 48 598 7 -3 53 -99 233 -493 7 -16 49 -109 93 -205
117 -257 112 -248 142 -255 42 -9 76 9 93 52 8 21 47 110 85 198 39 88 123
282 187 430 116 269 139 313 149 284 3 -8 10 -95 15 -194 6 -99 16 -259 22
-356 6 -98 9 -189 5 -203 -9 -38 -61 -66 -121 -66 -28 0 -56 -5 -63 -12 -7 -7
-12 -33 -12 -60 0 -37 4 -50 19 -58 13 -6 143 -10 354 -10 315 0 335 1 351 19
12 14 16 32 14 67 l-3 47 -70 17 c-39 9 -76 19 -82 23 -21 13 -31 77 -38 227
-3 80 -10 201 -15 270 -6 69 -15 204 -20 300 -6 96 -13 196 -16 221 -8 57 11
79 66 79 21 0 50 4 64 10 23 8 26 15 26 59 0 80 -4 81 -271 81 -203 0 -227 -2
-241 -17 -15 -18 -43 -77 -158 -338 -90 -202 -179 -403 -202 -453 -10 -24 -24
-42 -30 -40 -6 2 -54 98 -108 213 -53 116 -112 244 -131 285 -20 41 -46 99
-60 129 -13 30 -42 91 -64 135 l-40 81 -230 3 c-196 2 -233 0 -253 -13z"/>
<path d="M11428 3542 c-56 -95 -139 -180 -230 -233 -58 -34 -68 -44 -68 -67 0
-42 26 -72 63 -72 60 0 59 4 58 -250 -2 -278 8 -362 53 -428 105 -155 393
-126 537 54 33 42 35 58 13 102 -12 25 -22 32 -44 32 -15 0 -34 -8 -41 -17
-30 -36 -93 -73 -125 -73 -61 0 -64 12 -64 306 0 236 2 262 17 268 9 4 60 6
114 5 53 -1 101 1 107 5 14 8 35 120 27 145 -3 11 -14 21 -23 22 -9 0 -64 2
-122 4 -58 1 -108 3 -112 4 -5 1 -8 54 -8 119 0 135 -8 152 -72 152 -34 0 -38
-4 -80 -78z"/>
<path d="M12265 3386 c-16 -7 -101 -37 -187 -66 l-158 -54 -6 -35 c-9 -46 3
-62 66 -88 30 -12 60 -29 67 -39 17 -23 19 -475 2 -523 -12 -35 -35 -51 -73
-51 -56 0 -84 -65 -48 -109 17 -22 22 -22 286 -21 185 0 274 4 283 12 9 7 13
28 11 62 -3 50 -3 51 -41 57 -21 3 -48 16 -60 28 -22 21 -22 28 -27 415 -4
313 -8 396 -19 409 -16 20 -54 21 -96 3z"/>
<path d="M10374 3351 c-128 -33 -216 -89 -267 -170 -16 -26 -21 -51 -21 -101
-1 -71 12 -100 45 -100 29 0 252 79 260 92 4 6 7 31 7 54 0 76 32 106 101 95
50 -9 81 -56 81 -128 0 -70 1 -70 -287 -177 -131 -50 -190 -110 -213 -221 -28
-137 38 -252 166 -288 111 -31 228 -17 310 39 24 16 43 23 50 18 64 -49 100
-67 139 -72 75 -8 172 26 250 88 57 45 61 55 33 96 -21 32 -27 35 -60 31 -23
-3 -41 0 -45 6 -5 7 -10 129 -13 272 l-5 260 -28 50 c-79 143 -292 209 -503
156z m204 -608 l3 -111 -38 -31 c-74 -61 -121 -48 -147 40 -15 48 -14 55 3 93
10 22 25 47 33 54 28 23 123 72 133 68 6 -1 11 -51 13 -113z"/>
<path d="M12881 3349 c-114 -40 -185 -117 -207 -224 -12 -55 -11 -71 2 -117
30 -99 88 -161 256 -272 49 -31 100 -73 114 -92 24 -31 25 -37 14 -64 -22 -53
-73 -64 -145 -31 -48 22 -76 51 -108 111 -22 42 -26 45 -69 48 -69 5 -72 -4
-59 -160 7 -72 15 -136 18 -140 3 -5 35 -9 71 -8 37 0 130 -2 207 -6 129 -6
145 -4 200 16 79 30 145 95 174 173 60 162 -18 299 -249 437 -97 58 -160 117
-160 149 0 48 81 66 137 31 37 -22 93 -95 93 -120 0 -45 78 -66 119 -32 21 16
22 24 19 147 l-3 130 -75 22 c-101 29 -270 31 -349 2z"/>
<path d="M7312 3342 c-32 -2 -46 -9 -58 -27 -25 -39 4 -95 49 -95 13 0 40 -15
62 -32 37 -31 106 -162 339 -651 l37 -78 -25 -54 c-53 -116 -100 -156 -215
-180 -89 -18 -113 -34 -137 -87 -41 -90 -9 -184 73 -219 56 -24 90 -24 145 0
97 41 99 45 576 1022 105 215 140 263 203 276 16 3 34 12 40 19 12 15 6 81 -9
96 -5 5 -103 10 -217 10 -234 1 -235 1 -235 -74 0 -33 3 -38 28 -44 131 -28
135 -44 47 -224 -38 -77 -77 -148 -87 -157 -17 -15 -19 -14 -30 18 -6 19 -40
92 -75 162 -35 70 -63 139 -63 152 0 26 25 45 59 45 30 0 54 42 46 80 -4 17
-12 33 -19 36 -14 5 -471 10 -534 6z"/>
</g>
</svg>
