<svg version="1.1" id="Layer_1" xmlns="http://www.w3.org/2000/svg" xmlns:xlink="http://www.w3.org/1999/xlink" x="0px" y="0px"
	 width="100%" viewBox="0 0 992 528" enable-background="new 0 0 992 528" xml:space="preserve">
<path fill="#0C971A" opacity="1.000000" stroke="none" 
	d="
M482.468658,529.000000 
	C471.445740,526.789551 460.833710,524.821045 450.349091,522.318665 
	C427.861542,516.951599 405.164459,512.190918 384.012207,502.394928 
	C367.774017,494.874756 353.822662,484.321869 341.981049,470.834015 
	C318.943695,444.594116 318.196503,408.144806 335.340424,379.213989 
	C345.990051,361.242523 361.809174,349.634247 380.474304,341.318604 
	C381.230347,340.981750 382.035889,340.733093 382.840485,340.531708 
	C387.107635,339.463715 391.815643,338.186829 394.801422,342.394653 
	C397.809387,346.633759 396.973755,351.744415 394.942719,356.244202 
	C392.939697,360.681976 387.297394,361.754211 383.546173,358.509583 
	C381.631775,356.853760 380.292236,356.454620 377.892181,357.586182 
	C347.656097,371.842163 334.495789,408.301178 340.267700,436.049133 
	C342.679871,447.645386 349.503815,456.869385 358.012695,464.958282 
	C369.701447,476.070251 382.677185,485.202301 397.367737,491.955231 
	C403.466309,494.758636 409.770874,496.704681 416.246735,498.294159 
	C429.797394,501.620117 443.331696,505.135864 456.903320,508.227081 
	C474.017578,512.125244 491.558044,513.937500 509.227875,515.057617 
	C540.090088,517.014160 569.901978,513.320801 599.199951,503.724365 
	C628.201111,494.225189 651.827576,476.934296 672.085022,454.586151 
	C678.916870,447.049225 685.064453,439.022003 690.267700,430.206146 
	C700.853271,412.271118 704.588745,393.075073 701.535583,372.596741 
	C698.746277,353.888550 695.835876,335.183502 689.806396,316.466064 
	C686.618652,319.132996 683.679688,321.689301 680.639221,324.118622 
	C666.966553,335.043030 651.518982,339.859039 634.043762,337.375275 
	C623.454224,335.870178 616.085449,327.802032 615.767090,316.917908 
	C615.513977,308.264740 615.728516,299.591003 615.971558,290.933044 
	C616.101440,286.303986 617.809082,282.342163 622.836060,281.082092 
	C625.744568,280.353058 628.959412,279.792419 631.259277,282.408997 
	C633.367554,284.807587 633.970947,287.845581 632.590393,290.828583 
	C629.115234,298.337463 628.929871,306.275543 629.213074,314.295685 
	C629.467896,321.513580 632.443359,324.404877 639.758606,324.655212 
	C658.654419,325.301971 672.295776,315.695740 683.834595,302.032990 
	C687.177124,298.075134 690.089539,293.924469 691.279907,288.659241 
	C691.887939,285.969788 693.165161,283.297394 695.208008,281.218933 
	C697.354431,279.035187 699.908325,278.038086 702.924622,279.112579 
	C705.786255,280.131897 706.902527,282.510864 707.249939,285.302612 
	C707.478027,287.135132 707.383118,288.991852 706.487427,290.670776 
	C703.280762,296.681488 703.904785,302.884979 705.507080,309.139648 
	C709.463989,324.585785 713.602722,339.972351 714.915039,355.974518 
	C717.430542,386.646790 717.058472,416.757690 698.293030,443.293304 
	C673.044617,478.996216 640.857361,505.532898 598.345642,518.313171 
	C583.659790,522.728210 568.662292,525.715637 553.313232,528.784546 
	C529.645752,529.000000 506.291534,529.000000 482.468658,529.000000 
z"/>
<path fill="#0C971A" opacity="1.000000" stroke="none" 
	d="
M160.489655,109.560959 
	C174.432281,87.768158 195.703674,77.934036 219.353806,72.844536 
	C248.280579,66.619530 273.794891,73.571548 295.726013,94.284294 
	C311.496552,109.178711 324.323151,125.345207 328.205658,147.328766 
	C329.586517,155.147430 326.219696,160.035278 319.460541,159.288742 
	C316.394531,158.950073 314.073059,157.506577 312.908386,154.616348 
	C312.102966,152.617584 311.288849,150.550125 310.968079,148.439011 
	C305.704803,113.798592 271.934265,85.049080 235.652008,86.226082 
	C220.002686,86.733749 205.249878,89.901512 193.305344,99.983315 
	C178.108215,112.810455 166.669739,128.380798 165.452499,149.406342 
	C165.285416,152.292160 165.234299,155.209656 166.814407,157.646362 
	C172.370544,166.214508 178.395874,174.208206 188.063202,178.868500 
	C203.067245,186.101425 218.806229,190.382645 235.244995,192.734482 
	C260.434113,196.338211 284.751160,202.847595 307.051147,215.663330 
	C333.273376,230.733154 346.513153,253.587524 349.221558,283.456177 
	C351.039398,303.503540 342.712738,320.092194 333.352692,336.559784 
	C316.451904,366.294159 289.826324,380.806335 256.853027,385.509796 
	C237.314697,388.296814 217.988770,388.405823 199.246109,381.304993 
	C177.484848,373.060608 160.173401,358.941498 145.775543,340.794617 
	C136.778412,329.454773 130.526352,317.281464 128.468964,302.728882 
	C126.239082,286.956055 130.787506,273.959595 142.694778,263.849701 
	C154.455200,253.864426 167.803879,246.815781 183.759109,246.791641 
	C189.441467,246.783035 194.983002,248.269440 199.728134,251.759674 
	C202.891617,254.086517 204.401031,257.105103 202.584702,260.864227 
	C200.833511,264.488525 197.519974,264.898346 194.004929,264.067261 
	C180.989395,260.989929 171.139374,265.851410 162.767166,275.677765 
	C151.434235,288.979095 149.101776,304.301666 152.478531,320.654480 
	C154.995789,332.844879 163.213943,341.904175 173.036667,348.595947 
	C190.183563,360.277405 208.562729,369.767700 229.713715,372.000671 
	C242.417435,373.341797 255.011230,372.009277 267.270386,368.638977 
	C297.926544,360.210999 319.503021,341.393555 330.459808,311.335205 
	C338.384125,289.596008 333.540222,269.845764 319.828247,251.698517 
	C310.217438,238.979019 297.355713,231.117249 282.765320,225.612717 
	C266.190277,219.359406 248.761459,216.359924 231.622238,212.253677 
	C215.434570,208.375427 199.093460,204.883881 184.116852,197.258621 
	C173.691422,191.950577 163.699844,185.978973 156.739334,176.075516 
	C149.056549,165.144394 146.089767,153.160614 148.936325,140.085739 
	C151.240448,129.502457 154.252243,119.091476 160.489655,109.560959 
z"/>
<path fill="#0C971A" opacity="1.000000" stroke="none" 
	d="
M553.826172,174.028900 
	C544.290039,170.663696 532.461670,174.606247 526.974487,183.594666 
	C519.385559,196.025818 513.626343,209.317947 511.474640,223.892197 
	C510.411285,231.094803 515.011963,239.025024 521.844055,242.260406 
	C531.281616,246.729645 543.640320,244.342773 550.752075,236.529404 
	C555.256897,231.580200 559.497803,226.515305 559.855347,219.242310 
	C560.015381,215.988525 562.637390,214.239548 565.711365,214.110977 
	C568.997314,213.973541 571.474915,215.632324 572.338501,219.029938 
	C573.461487,223.448593 572.613525,227.787521 570.621033,231.642731 
	C564.668640,243.160172 556.372559,252.640396 544.459351,258.229675 
	C530.676025,264.696350 503.985901,260.292938 498.195404,237.175186 
	C494.143463,253.573105 482.403778,261.277924 468.482117,266.549835 
	C450.649231,273.302826 432.749786,276.903687 414.214264,268.513733 
	C405.495270,264.567139 399.971222,258.410370 397.640289,249.296600 
	C391.050323,223.530228 399.998840,203.072189 419.003174,185.784836 
	C429.586273,176.157867 441.032196,167.867386 454.197937,162.398560 
	C465.802307,157.578308 477.575958,157.722321 488.635773,164.658997 
	C502.301636,173.230179 503.356964,189.634796 491.304840,200.570404 
	C478.430450,212.252213 463.342377,217.508926 446.156433,217.386871 
	C437.004333,217.321854 434.948883,216.663239 426.278656,210.868484 
	C417.755127,218.801682 416.284637,234.178207 419.956482,243.792648 
	C423.717163,253.639648 432.297150,256.804230 441.848541,257.681244 
	C455.391876,258.924866 466.218964,252.286987 476.638611,244.866562 
	C479.439697,242.871719 480.773895,239.680237 482.097351,236.617752 
	C485.848480,227.937637 488.749878,226.915558 497.664398,231.687683 
	C497.538269,214.554596 503.716644,199.374542 510.755615,184.421478 
	C517.587524,169.908264 528.501953,160.503662 544.726013,159.214966 
	C563.124939,157.753494 573.852600,168.787170 571.043030,188.098465 
	C570.602905,191.124039 568.498474,193.077988 565.183533,193.314484 
	C561.703552,193.562714 559.458801,191.978958 558.278503,188.773407 
	C557.386536,186.350983 557.725037,183.816086 557.778625,181.338821 
	C557.845581,178.248001 557.004395,175.766205 553.826172,174.028900 
M452.218414,181.696381 
	C446.269257,186.661194 440.622833,191.902054 436.402374,198.240936 
	C437.425751,200.032883 438.719360,200.466492 440.044342,200.547058 
	C452.270020,201.290253 464.246857,200.954788 475.338745,194.509232 
	C479.427246,192.133377 481.048889,188.995621 480.404144,184.726746 
	C479.691040,180.005356 476.843018,177.209244 471.898254,176.258987 
	C464.630005,174.862198 458.448792,176.890778 452.218414,181.696381 
z"/>
<path fill="#0C971A" opacity="1.000000" stroke="none" 
	d="
M429.766479,154.906036 
	C413.522644,162.826736 397.006714,168.176132 379.033783,167.289398 
	C374.810059,167.081009 373.910828,168.844147 374.288940,172.626022 
	C376.514465,194.884933 375.314423,217.214462 375.214478,239.506561 
	C375.166992,250.098587 374.030640,260.757629 370.682770,270.989227 
	C369.898285,273.386810 368.915131,275.652863 367.287354,277.609680 
	C365.046143,280.303955 362.325012,281.695953 358.937775,280.066254 
	C355.715118,278.515717 354.484650,275.717743 355.047394,272.198151 
	C355.911133,266.795868 357.190094,261.433014 357.655304,255.998840 
	C359.432556,235.238770 359.215912,214.508759 356.828064,193.764984 
	C354.067169,169.780731 350.182892,146.024918 343.503815,122.811417 
	C339.820251,110.008957 335.783356,97.271294 327.010254,86.730286 
	C325.515564,84.934410 324.116150,83.156265 322.156036,81.778778 
	C317.568604,78.554893 317.057587,74.197014 320.459351,69.189850 
	C322.974396,65.487885 326.895477,64.852333 331.400940,67.819191 
	C337.735291,71.990334 342.354370,77.928902 346.835999,83.717369 
	C348.566895,84.022491 348.983765,82.653778 349.788940,81.918022 
	C354.862579,77.281807 360.282349,73.083984 366.688324,70.514603 
	C389.138947,61.509850 412.352722,56.952766 436.501434,60.741943 
	C454.259338,63.528336 472.819305,76.104073 475.740662,97.275795 
	C477.318817,108.713257 472.428009,117.776688 466.236084,126.334038 
	C456.943878,139.176102 444.385345,148.115738 429.766479,154.906036 
M407.409393,147.789093 
	C425.656189,143.285110 442.109192,135.304840 453.438019,119.922585 
	C464.373260,105.074715 461.948059,87.589027 441.843445,81.214378 
	C430.376648,77.578552 418.815552,77.622467 407.240875,78.549873 
	C392.541199,79.727669 379.114319,84.934502 367.279205,93.946732 
	C364.346588,96.179848 363.085968,98.576538 364.253326,102.503563 
	C367.952850,114.948647 369.761383,127.812859 372.077362,140.560059 
	C373.168854,146.567780 375.956329,149.344528 382.295471,149.620621 
	C390.428986,149.974869 398.608765,150.243256 407.409393,147.789093 
z"/>
<path fill="#0C971A" opacity="1.000000" stroke="none" 
	d="
M642.442139,178.557083 
	C648.783142,168.754379 656.734009,161.408905 667.559082,157.604187 
	C676.068481,154.613342 684.384277,154.526917 691.531677,160.858521 
	C698.859558,167.349960 699.286987,175.887817 697.731506,184.811539 
	C696.136169,193.963959 690.923218,201.312286 685.945618,208.829926 
	C680.215210,217.484604 679.732239,227.433258 680.767456,237.204132 
	C681.503662,244.153137 692.493408,249.158554 700.721252,247.189087 
	C714.572571,243.873505 725.872375,236.036011 736.375122,226.828583 
	C736.500244,226.718857 736.601135,226.577118 736.736389,226.483917 
	C744.202881,221.340347 747.321533,215.603165 743.906860,205.773941 
	C740.151367,194.963638 742.208862,183.264481 744.819702,172.225266 
	C750.480164,148.291840 760.141052,126.146790 776.058228,107.082069 
	C777.433838,105.434441 779.106689,103.990028 780.810974,102.670097 
	C786.084473,98.585930 791.762085,96.094223 798.342285,99.540161 
	C804.631714,102.833786 806.968567,108.676598 807.259583,115.266975 
	C808.171631,135.916809 802.875366,155.188019 793.370911,173.342972 
	C785.860474,187.688965 776.990479,201.191864 766.981750,213.937897 
	C765.988220,215.203125 764.272583,216.509079 765.002197,218.247330 
	C765.846802,220.259323 768.032166,220.671356 770.077393,220.865036 
	C773.137939,221.154907 776.122925,220.698944 778.802979,219.232986 
	C786.066101,215.260132 792.494751,210.419174 796.212341,202.632797 
	C798.324219,198.209549 801.943970,196.760025 805.465820,198.449722 
	C809.105042,200.195709 810.124451,203.704666 808.465881,208.277985 
	C804.572693,219.012848 786.311279,235.819595 770.102783,234.450089 
	C765.827698,234.088867 761.640137,233.346802 758.343201,230.854187 
	C755.020447,228.341965 753.290100,229.532547 750.881226,231.912674 
	C742.674072,240.021683 733.765015,247.291748 723.530518,252.727890 
	C713.737732,257.929382 703.579651,261.730072 692.145264,261.422485 
	C676.517212,261.002075 667.788147,252.889542 666.867798,237.224442 
	C666.732666,234.923462 666.849060,232.607712 666.849060,229.992447 
	C663.746582,230.153748 662.272644,232.119629 660.494080,233.418716 
	C656.926819,236.024277 653.145508,238.121292 648.624207,238.125229 
	C641.537537,238.131409 636.494690,233.857010 635.164612,225.807846 
	C632.464111,209.465134 634.054626,193.634125 642.442139,178.557083 
M759.584290,168.071991 
	C756.622864,179.460815 754.726562,190.912109 756.989868,203.077728 
	C758.031616,202.522812 758.581787,202.402161 758.846741,202.060394 
	C760.475281,199.959641 762.105347,197.854477 763.614319,195.667557 
	C776.029785,177.673447 787.769043,159.338837 792.058472,137.383728 
	C793.431458,130.356339 794.357056,123.259323 793.741943,116.091469 
	C793.398499,112.089561 791.873657,111.523438 788.569458,113.774399 
	C786.476990,115.199837 784.815674,117.063683 783.365234,119.105141 
	C772.869873,133.877075 765.284668,150.070282 759.584290,168.071991 
M653.681335,186.187012 
	C647.406494,198.031952 646.033264,210.443054 648.532715,223.561249 
	C652.152222,223.329498 653.832153,221.350937 655.492798,219.615448 
	C663.584595,211.158981 669.592651,201.173218 675.546631,191.217957 
	C677.810364,187.432861 678.998901,182.965042 680.400146,178.716888 
	C681.424622,175.610779 680.393372,172.826675 678.025940,170.574982 
	C675.856812,168.511917 673.590881,169.810196 671.506714,170.605072 
	C663.929626,173.494919 658.327271,178.763641 653.681335,186.187012 
z"/>
<path fill="#0C971A" opacity="1.000000" stroke="none" 
	d="
M496.590149,301.453918 
	C504.891113,310.098572 505.905731,320.840546 506.041809,331.504364 
	C506.340088,354.878723 498.168518,374.785187 480.237915,390.288788 
	C475.907135,394.033356 470.949585,396.811127 465.820190,399.184448 
	C450.216431,406.404083 434.197510,412.423492 417.036255,414.815430 
	C411.640228,415.567535 406.365997,415.093994 401.462341,412.586792 
	C399.342865,411.503113 397.496307,410.809509 394.921722,411.388306 
	C391.104095,412.246552 389.066162,410.091888 388.658142,406.213776 
	C388.014648,400.097229 390.452637,394.818787 392.945862,389.533386 
	C398.277954,378.230011 403.331848,366.812378 405.164886,354.317688 
	C405.668365,350.885590 405.772736,347.338287 405.580872,343.870331 
	C404.591858,325.994049 405.937622,307.833252 399.198212,290.623444 
	C398.562653,289.000549 398.669434,287.009979 398.742401,285.202667 
	C398.893188,281.466431 400.872711,278.853027 404.466949,277.921326 
	C408.229767,276.945953 411.054779,278.780731 412.687866,282.046112 
	C414.013428,284.696686 414.801514,287.616058 415.840027,290.449097 
	C430.473022,280.674011 446.799377,277.192749 463.994019,280.042908 
	C477.523376,282.285522 487.812347,290.691589 496.590149,301.453918 
M408.484924,397.732269 
	C408.691864,403.302643 412.938629,401.754944 415.788635,401.418365 
	C423.745850,400.478577 431.404999,398.082428 438.933655,395.404968 
	C453.545258,390.208557 467.857208,384.820465 478.738098,372.634888 
	C494.353851,355.146698 498.951569,317.481934 472.759186,303.199951 
	C459.698669,296.078430 446.221832,292.175964 431.703857,297.923126 
	C427.126068,299.735291 422.883331,301.577301 417.935760,299.780823 
	C417.712921,300.576233 417.412689,301.066864 417.476654,301.504242 
	C419.243317,313.585205 417.915436,325.782349 418.966949,337.911102 
	C420.747101,358.444550 414.484344,377.706085 408.484924,397.732269 
z"/>
<path fill="#0C971A" opacity="1.000000" stroke="none" 
	d="
M535.432983,307.471191 
	C541.313782,299.895996 547.051514,292.668671 557.026672,291.175964 
	C562.393127,290.372955 567.311035,291.449158 571.324402,295.333221 
	C572.667114,296.632721 573.997864,297.539551 575.955200,297.939789 
	C581.810181,299.137085 583.680847,302.214508 582.006165,308.163422 
	C579.529358,316.961334 576.660645,325.652710 575.034363,334.669556 
	C574.622803,336.951202 574.329346,339.271667 574.214478,341.585846 
	C573.914673,347.626251 576.678772,349.413849 582.262634,346.797821 
	C586.058960,345.019257 589.289124,342.362793 592.593567,339.830963 
	C594.044922,338.718903 595.443726,337.468109 597.053711,336.647858 
	C600.359680,334.963531 603.637268,335.104156 605.991516,338.273712 
	C608.326721,341.417603 607.804810,344.776764 605.020935,347.274780 
	C601.686584,350.266754 597.998230,352.881195 594.354614,355.508636 
	C579.575195,366.166321 567.631409,363.293793 559.556274,347.117432 
	C557.035095,346.961975 555.958984,349.156219 554.393677,350.476685 
	C547.948059,355.914062 541.370239,360.815094 532.225342,360.388428 
	C521.609375,359.893066 516.832581,352.816742 518.183167,342.867950 
	C520.010681,329.406525 527.474548,318.465302 535.432983,307.471191 
M546.649109,315.126404 
	C540.463257,323.211304 535.142822,331.779022 532.049500,341.565491 
	C531.562805,343.105286 530.721497,344.903717 532.447693,346.141907 
	C533.958069,347.225250 535.622803,346.546051 537.181824,345.868042 
	C542.185486,343.691925 545.816345,339.720001 549.705811,336.138367 
	C556.391907,329.981384 560.109436,322.043915 562.425720,313.423706 
	C563.217163,310.478638 562.314331,307.718536 559.628174,306.026245 
	C556.906372,304.311554 554.836792,306.178802 553.065125,307.911591 
	C550.938599,309.991394 549.072937,312.337982 546.649109,315.126404 
z"/>
<path fill="#0C971A" opacity="1.000000" stroke="none" 
	d="
M624.206116,246.008224 
	C622.425964,248.031387 621.014648,249.930542 619.263916,251.434570 
	C613.956604,255.994110 607.231750,254.878281 602.332886,248.680481 
	C596.569519,241.388992 593.841614,232.708969 592.929260,223.777527 
	C589.528809,190.489487 593.093384,158.106964 607.018860,127.286888 
	C608.707764,123.549011 610.761047,120.445312 615.531067,121.337067 
	C619.706909,122.117744 623.150635,126.582932 623.325195,131.130295 
	C623.511475,135.982971 622.125427,140.502914 619.242310,144.232483 
	C611.203491,154.631393 607.773376,166.595810 606.531372,179.384903 
	C605.132080,193.793732 604.370422,208.211868 606.322876,222.639603 
	C606.771057,225.951675 607.862000,229.074402 608.938782,232.226288 
	C610.172180,235.836960 612.506165,236.469330 615.534119,234.927444 
	C619.005127,233.160004 622.729553,230.646820 625.914490,234.352631 
	C629.199768,238.175217 626.895325,242.158905 624.206116,246.008224 
z"/>
<path fill="#0C971A" opacity="1.000000" stroke="none" 
	d="
M635.159668,76.239975 
	C645.373779,60.771633 657.968872,48.356174 674.673767,40.829388 
	C689.790588,34.018127 694.213928,37.020092 694.365784,53.217667 
	C694.669128,85.558640 674.200684,108.704109 642.220093,112.442932 
	C636.884338,113.066727 631.600403,113.099953 626.279785,112.862976 
	C622.293274,112.685417 620.784973,110.479805 622.158630,106.844444 
	C626.035461,96.584587 629.052185,85.950356 635.159668,76.239975 
M681.730896,79.186592 
	C686.492981,70.558723 688.992188,61.365620 688.648865,51.464272 
	C688.469910,46.303211 687.470154,45.573509 682.549622,47.388733 
	C679.430542,48.539368 676.362061,49.860714 673.362976,51.297646 
	C653.507446,60.810856 639.528564,75.693810 632.239746,96.612953 
	C631.559082,98.566254 630.546875,100.600052 632.047852,102.934006 
	C635.774109,101.691360 638.905090,99.551689 641.979980,97.305573 
	C650.104797,91.370461 657.402344,84.608856 663.090271,76.231369 
	C664.152100,74.667427 665.404175,72.932274 667.492310,74.313660 
	C669.803467,75.842552 668.624878,77.796013 667.461243,79.510872 
	C666.621399,80.748589 665.694885,81.927780 664.800659,83.128334 
	C658.188171,92.005608 649.502075,98.659912 640.438782,105.370827 
	C653.071106,106.498283 671.246948,95.008179 681.730896,79.186592 
z"/>
<path fill="#0C971A" opacity="1.000000" stroke="none" 
	d="
M597.423706,103.822594 
	C578.965393,95.236305 568.566711,81.438942 568.877502,61.084232 
	C569.037964,50.575623 571.239136,40.311234 577.790588,31.459286 
	C580.045349,28.412725 582.167419,28.115257 585.406982,29.684134 
	C606.362305,39.832539 620.427246,55.376667 623.831787,79.047127 
	C625.042664,87.466248 624.973389,95.952995 621.746826,104.121925 
	C620.107483,108.272301 617.265381,109.738449 613.067688,108.540527 
	C607.953369,107.080986 602.873657,105.500244 597.423706,103.822594 
M576.962158,72.610107 
	C580.162109,87.557861 597.766357,102.204185 611.214905,101.038849 
	C611.964478,98.851677 610.500061,97.208176 609.633789,95.529884 
	C604.352112,85.297722 598.550598,75.395935 590.848572,66.728706 
	C589.502197,65.213638 588.156311,63.297523 590.396362,61.565159 
	C592.424988,59.996292 593.820312,61.847672 595.007141,63.149281 
	C600.187256,68.830376 604.682800,75.018059 608.419067,81.749275 
	C611.206848,86.771683 614.022888,91.778450 617.122864,97.322533 
	C618.450989,92.827415 619.161377,88.902847 618.504272,84.966034 
	C615.151428,64.878395 605.752686,48.751217 587.756775,38.214878 
	C584.655884,36.399353 582.989929,36.653625 580.914124,39.749321 
	C574.160217,49.821594 573.697266,60.547348 576.962158,72.610107 
z"/>
<path fill="#0C971A" opacity="1.000000" stroke="none" 
	d="
M522.097778,463.363220 
	C527.392639,457.761841 532.263672,457.456024 535.079895,462.236176 
	C537.574280,466.469940 535.137756,469.599457 532.501831,472.449249 
	C530.172546,474.967529 527.030884,475.200256 524.313904,473.347412 
	C520.875183,471.002411 520.083069,467.574524 522.097778,463.363220 
z"/>
<path fill="#0C971A" opacity="1.000000" stroke="none" 
	d="
M560.715332,459.641296 
	C565.252991,458.892670 568.453064,460.097870 569.225281,464.602783 
	C569.958923,468.882141 567.732422,471.644257 563.676392,472.713623 
	C559.948425,473.696533 557.050415,472.195374 555.699219,468.634399 
	C553.990784,464.132019 556.261475,461.382355 560.715332,459.641296 
z"/>
</svg>